<svg id="bcc5b269-2c15-4ceb-87ee-2336ac482635" data-name="Layer 1" xmlns="http://www.w3.org/2000/svg" xmlns:xlink="http://www.w3.org/1999/xlink" width="524" height="351" viewBox="0 0 1048 702.91">
	<circle cx="524" cy="431.21" r="243.4" fill="#05386b" />
	<path d="M802.25,529.75C802.25,641.45,711.69,732,600,732c-6.41,0-12.76-.29-19-.88-100.56-9.39-179.75-92.38-183.12-194.55q-.12-3.41-.12-6.82,0-7.66.57-15.2c7.77-104.59,95.1-187,201.68-187,92,0,169.64,61.42,194.17,145.48.43,1.51.86,3,1.27,4.55q2.25,8.5,3.8,17.29A204,204,0,0,1,802.25,529.75Z" transform="translate(-76 -98.55)" opacity="0.3" />
	<path d="M802.25,529.75C802.25,641.45,711.69,732,600,732c-109.41,0-198.54-86.9-202.13-195.43,23.06.66,46.55-.1,68.34-7.61,23.62-8.13,43.84-23.69,65.59-36,58.43-32.95,128.16-41.82,194.91-35.3,22.67,2.21,46.18,6.81,67.46,15.27a202.39,202.39,0,0,1,8.08,56.77Z" transform="translate(-76 -98.55)" fill="#084f96" opacity="0.4" />
	<path d="M802.25,529.75C802.25,641.45,711.69,732,600,732c-6.41,0-12.76-.29-19-.88A202.26,202.26,0,0,1,468.42,556.56c23.06.66,46.55-.1,68.34-7.61,23.63-8.13,43.84-23.69,65.59-36,57.9-32.66,126.89-41.65,193.09-35.47q2.25,8.5,3.8,17.29A204,204,0,0,1,802.25,529.75Z" transform="translate(-76 -98.55)" fill="#084f96" opacity="0.4" />
	<path d="M802.25,529.75C802.25,641.45,711.69,732,600,732S397.75,641.45,397.75,529.75q0-7.66.57-15.2A160.57,160.57,0,0,1,444.5,527.4c23.72,10.65,44.82,27,69.49,35.21,18,6,37.14,7.43,56.08,8,23.65.75,47.8.15,70.17-7.56,23.62-8.13,43.83-23.69,65.59-35.95,28.93-16.32,60.66-26.73,93.41-32.29A204,204,0,0,1,802.25,529.75Z" transform="translate(-76 -98.55)" fill="#084f96" />
	<path d="M569,634.7c22.75-4.2,22.85-37.36,22.85-37.36-1,4.74-3.33,5.2-15.18,9s-19,16.05-19,16.05c-35.41-40.37-65.85,3.59-65.85,3.59a42,42,0,0,0,21.19,16.41c-1.4,3.42-2.88,8.19-1.14,9.94,2,2,7.47-4.15,10.41-7.84.88.1,1.76.19,2.64.25,1.69,3.39,5.88,12.3,5.87,17.59,0,0,9.66-.74,8.44-18.35A72.86,72.86,0,0,0,557,638.69s-1,27.47,7,28.91,15.84,11.18,15.84,11.18C591.72,655.61,569,634.7,569,634.7Z" transform="translate(-76 -98.55)" fill="#ff6a00" opacity="0.6" />
	<path d="M710.58,582.71c22.68,4.54,35.07-26.22,35.07-26.22-2.65,4-5,3.59-17.43,2.69S704.63,567,704.63,567C686.72,516.42,642.14,546,642.14,546a42,42,0,0,0,13.6,23.1c-2.57,2.66-5.71,6.54-4.74,8.8,1.12,2.65,8.47-1.08,12.57-3.42.78.43,1.57.83,2.36,1.21.31,3.78.9,13.61-1.07,18.52,0,0,9.25,2.89,14.64-13.92a72.53,72.53,0,0,0,18.37,1.68s-11.14,25.13-4.2,29.46,10.56,16.25,10.56,16.25C723.88,610.53,710.58,582.71,710.58,582.71Z" transform="translate(-76 -98.55)" fill="#ff6a00" opacity="0.6" />
</svg>
